# xmcd
#
# Track frame offsets:
#	183
#	12993
#	26053
#	44883
#	60130
#	73860
#	86438
#	99343
#	112223
#	125430
#	137380
#	151963
#	166605
#	179745
#	193025
#	208118
#
# Disc length: 2963 seconds
#
# Revision: 4
# Processed by: cddbd v1.5.1PL0 Copyright (c) Steve Scherf et al.
# Submitted via: audiograbber 1.83.01
#
DISCID=dd0b9110
DTITLE=Muddy Waters - The World Of Muddy Waters - I'm Your Hoochie Coochie Man
DYEAR=1992
DGENRE=Blues
TTITLE0=I'm Your Hoochie Coochie Man
TTITLE1=Mannish Boy
TTITLE2=I Got My Mojo Working
TTITLE3=They Call Me Muddy Waters
TTITLE4=I'm Ready
TTITLE5=Train Fare Home Blues
TTITLE6=Forty Days And Forty Nights
TTITLE7=I Just Want To Make Love To You
TTITLE8=She Moves Me
TTITLE9=Long Distance Call
TTITLE10=Just To Be With You
TTITLE11=Still A Fool
TTITLE12=Southbound Train
TTITLE13=I Feel So Good
TTITLE14=Standing Around Crying
TTITLE15=Feel Like Going Home
EXTD=
EXTT0=W. Dixon\n
EXTT1=M. Morganfield/E. McDaniel/M. London\n
EXTT2=M. MorganField\n
EXTT3=M. MorganField\n
EXTT4=M. MorganField\n
EXTT5=M. MorganField\n
EXTT6=B. Roth\n
EXTT7=W. Dixon\n
EXTT8=M. MorganField\n
EXTT9=M. MorganField\n
EXTT10=B. Roth\n
EXTT11=M. MorganField\n
EXTT12=B. Broonzy\n
EXTT13=B. Broonzy\n
EXTT14=M. MorganField\n
EXTT15=M. MorganField\n
PLAYORDER=
